<svg width="56" height="56" viewBox="0 0 56 56" fill="none" xmlns="http://www.w3.org/2000/svg">
<path d="M27.9998 12.1667C19.2598 12.1667 12.1665 19.26 12.1665 28C12.1665 36.74 19.2598 43.8334 27.9998 43.8334C36.7398 43.8334 43.8332 36.74 43.8332 28C43.8332 19.26 36.7398 12.1667 27.9998 12.1667ZM27.9998 16.9167C30.6282 16.9167 32.7498 19.0384 32.7498 21.6667C32.7498 24.295 30.6282 26.4167 27.9998 26.4167C25.3715 26.4167 23.2498 24.295 23.2498 21.6667C23.2498 19.0384 25.3715 16.9167 27.9998 16.9167ZM27.9998 39.4C24.0415 39.4 20.5423 37.3734 18.4998 34.3017C18.5473 31.1509 24.8332 29.425 27.9998 29.425C31.1507 29.425 37.4523 31.1509 37.4998 34.3017C35.4573 37.3734 31.9582 39.4 27.9998 39.4Z" fill="black" fill-opacity="0.8"/>
</svg>
