<svg width="56" height="56" viewBox="0 0 56 56" fill="none" xmlns="http://www.w3.org/2000/svg">
<path d="M43.8333 18.5H35.9167V31.4517C35.4258 31.2775 34.8875 31.1667 34.3333 31.1667C31.705 31.1667 29.5833 33.2883 29.5833 35.9167C29.5833 38.545 31.705 40.6667 34.3333 40.6667C36.9617 40.6667 39.0833 38.545 39.0833 35.9167V21.6667H43.8333V18.5ZM32.75 18.5H13.75V21.6667H32.75V18.5ZM32.75 24.8333H13.75V28H32.75V24.8333ZM26.4167 31.1667H13.75V34.3333H26.4167V31.1667ZM32.75 35.9167C32.75 35.0458 33.4625 34.3333 34.3333 34.3333C35.2042 34.3333 35.9167 35.0458 35.9167 35.9167C35.9167 36.7875 35.2042 37.5 34.3333 37.5C33.4625 37.5 32.75 36.7875 32.75 35.9167Z" fill="black" fill-opacity="0.8"/>
</svg>
