<svg width="227" height="30" viewBox="0 0 227 30" fill="none" xmlns="http://www.w3.org/2000/svg">
<g clip-path="url(#clip0_101_1534)">
<path d="M33.611 4.13611C31.8078 4.13611 30.0341 4.54997 28.3787 5.28901C25.0087 3.78137 21.1362 3.81093 17.8845 5.28901C16.2882 4.57953 14.5441 4.13611 12.6817 4.13611C5.67574 4.13611 0 9.84151 0 16.8181C0 23.7946 5.67574 29.5 12.6817 29.5C14.5441 29.5 16.3177 29.0566 17.914 28.3471C19.5399 29.0862 21.3431 29.5 23.1464 29.5C24.9496 29.5 26.7233 29.1157 28.3787 28.3471C30.0046 29.0862 31.7782 29.5 33.5815 29.5C40.5874 29.5 46.2927 23.8242 46.2927 16.8476C46.2927 9.87107 40.617 4.13611 33.611 4.13611ZM4.43417 16.8181C4.43417 12.2656 8.12931 8.57036 12.6817 8.57036C17.2341 8.57036 20.9293 12.2656 20.9293 16.8181C20.9293 21.3706 17.2341 25.0658 12.6817 25.0658C8.12931 25.0658 4.43417 21.3706 4.43417 16.8181ZM22.3482 24.9475C24.2106 22.7304 25.3635 19.922 25.3635 16.8181C25.3635 13.7141 24.181 10.8762 22.3187 8.65904C24.0036 8.48167 25.7773 8.77729 27.2554 9.63458C29.8272 11.1718 31.3939 13.8619 31.3939 16.8181C31.3939 19.7742 29.8272 22.4643 27.3145 23.9424C25.7773 24.8293 24.0332 25.0953 22.3482 24.9475ZM33.611 25.0658C33.345 25.0658 33.1085 24.9771 32.8424 24.9771C34.7343 22.7304 35.8281 19.8629 35.8281 16.8476C35.8281 13.8323 34.7343 10.9353 32.8424 8.68861C33.1085 8.68861 33.345 8.59992 33.611 8.59992C38.1634 8.59992 41.8881 12.2951 41.8881 16.8772C41.8881 21.4592 38.193 25.0953 33.611 25.0953V25.0658Z" fill="#FF4D00"/>
<path d="M61.369 5.88025C55.5159 5.88025 50.7861 10.6397 50.7861 16.4633V27.076H55.2203V16.4633C55.2203 13.0637 57.9991 10.3145 61.369 10.3145C64.739 10.3145 67.5177 13.0933 67.5177 16.4633V27.076H71.9519V16.4633C71.9519 10.6101 67.1926 5.88025 61.369 5.88025Z" fill="#FF4D00"/>
<path d="M216.417 16.4929V27.1055H220.851V16.4929C220.851 13.0933 223.6 10.3441 227 10.3441V5.88025C221.147 5.88025 216.417 10.6397 216.417 16.4633V16.4929Z" fill="#FF4D00"/>
<path d="M157.797 5.88025C151.944 5.88025 147.214 10.6397 147.214 16.4633V27.076H151.649V16.4633C151.649 13.0637 154.398 10.3145 157.797 10.3145C161.197 10.3145 163.946 13.0933 163.946 16.4633V27.076H168.38V16.4633C168.38 10.6101 163.621 5.88025 157.797 5.88025Z" fill="#FF4D00"/>
<path d="M137.991 16.4929C137.991 19.8925 135.213 22.6417 131.843 22.6417C128.473 22.6417 125.694 19.8629 125.694 16.4929V5.88025H121.26V16.4929C121.26 22.3461 126.019 27.076 131.843 27.076C137.666 27.076 142.426 22.3165 142.426 16.4929V5.88025H137.991V16.4929Z" fill="#FF4D00"/>
<path d="M178.431 16.4929V10.3145H183.811V5.88022H178.431V0.5H173.997V16.4929C173.997 22.3461 178.756 27.0759 184.58 27.0759V22.6417C181.18 22.6417 178.431 19.8629 178.431 16.4929Z" fill="#FF4D00"/>
<path d="M76.3857 16.4929C76.3857 22.3461 81.1451 27.076 86.9686 27.076H92.8217V22.6417H86.9686C83.5691 22.6417 80.8199 19.8629 80.8199 16.4929C80.8199 13.1229 83.5987 10.3441 86.9686 10.3441H92.8217V5.88025H86.9686C81.1155 5.88025 76.3857 10.6397 76.3857 16.4633V16.4929Z" fill="#FF4D00"/>
<path d="M106.864 5.88025C101.011 5.88025 96.2808 10.6397 96.2808 16.4633C96.2808 22.287 101.04 27.0464 106.864 27.0464C112.687 27.0464 117.447 22.287 117.447 16.4633C117.447 10.6397 112.687 5.88025 106.864 5.88025ZM106.864 22.6417C103.464 22.6417 100.715 19.8629 100.715 16.4929C100.715 13.1229 103.494 10.3441 106.864 10.3441C110.234 10.3441 113.012 13.1229 113.012 16.4929C113.012 19.8629 110.263 22.6417 106.864 22.6417Z" fill="#FF4D00"/>
<path d="M199.656 5.88025C193.803 5.88025 189.043 10.6397 189.043 16.4929C189.043 22.3461 193.803 27.076 199.656 27.076C203.913 27.076 207.608 24.5337 209.293 20.868H203.972C202.878 21.9618 201.37 22.6417 199.656 22.6417C197.025 22.6417 194.778 21.0158 193.891 18.71H210.002C210.15 18.0005 210.239 17.2615 210.239 16.4929C210.239 10.6397 205.479 5.88025 199.656 5.88025ZM193.891 14.2758C194.778 11.97 197.025 10.3145 199.656 10.3145C202.287 10.3145 204.504 11.97 205.391 14.2758H193.891Z" fill="#FF4D00"/>
</g>
<defs>
<clipPath id="clip0_101_1534">
<rect width="227" height="29" fill="white" transform="translate(0 0.5)"/>
</clipPath>
</defs>
</svg>
