<svg width="704" height="20" viewBox="0 0 704 20" fill="none" xmlns="http://www.w3.org/2000/svg">
<path d="M5.45912 15.6591C4.70912 15.6591 4.04056 15.5303 3.45344 15.2727C2.8701 15.0152 2.40609 14.6572 2.06139 14.1989C1.72048 13.7367 1.53488 13.2008 1.50457 12.5909H2.93639C2.96669 12.9659 3.09548 13.2898 3.32275 13.5625C3.55003 13.8314 3.84738 14.0398 4.2148 14.1875C4.58222 14.3352 4.98942 14.4091 5.43639 14.4091C5.93639 14.4091 6.37957 14.322 6.76594 14.1477C7.1523 13.9735 7.45533 13.7311 7.67503 13.4205C7.89472 13.1098 8.00457 12.75 8.00457 12.3409C8.00457 11.9129 7.89851 11.536 7.68639 11.2102C7.47427 10.8807 7.16366 10.6231 6.75457 10.4375C6.34548 10.2519 5.84548 10.1591 5.25457 10.1591H4.32275V8.90909H5.25457C5.71669 8.90909 6.122 8.82576 6.47048 8.65909C6.82275 8.49242 7.09738 8.25758 7.29434 7.95455C7.4951 7.65152 7.59548 7.29545 7.59548 6.88636C7.59548 6.49242 7.50836 6.14962 7.33412 5.85795C7.15988 5.56629 6.91366 5.33901 6.59548 5.17614C6.28109 5.01326 5.90988 4.93182 5.48184 4.93182C5.08033 4.93182 4.70154 5.00568 4.34548 5.15341C3.99321 5.29735 3.70533 5.50758 3.48184 5.78409C3.25836 6.05682 3.13715 6.38636 3.11821 6.77273H1.75457C1.7773 6.16288 1.96101 5.62879 2.30571 5.17045C2.65041 4.70833 3.10116 4.34848 3.65798 4.09091C4.21859 3.83333 4.83412 3.70455 5.50457 3.70455C6.22427 3.70455 6.84169 3.85038 7.35684 4.14205C7.872 4.42992 8.26783 4.81061 8.54434 5.28409C8.82086 5.75758 8.95912 6.26894 8.95912 6.81818C8.95912 7.47348 8.78677 8.0322 8.44207 8.49432C8.10116 8.95644 7.63715 9.27652 7.05003 9.45455V9.54545C7.78488 9.66667 8.35874 9.97917 8.77162 10.483C9.1845 10.983 9.39094 11.6023 9.39094 12.3409C9.39094 12.9735 9.21859 13.5417 8.87389 14.0455C8.53298 14.5455 8.06707 14.9394 7.47616 15.2273C6.88525 15.5152 6.21291 15.6591 5.45912 15.6591ZM12.7148 14.0114C12.4345 14.0114 12.194 13.911 11.9932 13.7102C11.7925 13.5095 11.6921 13.2689 11.6921 12.9886C11.6921 12.7083 11.7925 12.4678 11.9932 12.267C12.194 12.0663 12.4345 11.9659 12.7148 11.9659C12.9951 11.9659 13.2356 12.0663 13.4364 12.267C13.6371 12.4678 13.7375 12.7083 13.7375 12.9886C13.7375 13.1742 13.6902 13.3447 13.5955 13.5C13.5046 13.6553 13.3815 13.7803 13.2262 13.875C13.0746 13.9659 12.9042 14.0114 12.7148 14.0114ZM12.7148 8.125C12.4345 8.125 12.194 8.02462 11.9932 7.82386C11.7925 7.62311 11.6921 7.38258 11.6921 7.10227C11.6921 6.82197 11.7925 6.58144 11.9932 6.38068C12.194 6.17992 12.4345 6.07955 12.7148 6.07955C12.9951 6.07955 13.2356 6.17992 13.4364 6.38068C13.6371 6.58144 13.7375 6.82197 13.7375 7.10227C13.7375 7.28788 13.6902 7.45833 13.5955 7.61364C13.5046 7.76894 13.3815 7.89394 13.2262 7.98864C13.0746 8.07955 12.9042 8.125 12.7148 8.125ZM20.212 3.86364V15.5H18.8029V5.34091H18.7347L15.8938 7.22727V5.79545L18.8029 3.86364H20.212ZM27.4904 15.6591C26.7404 15.6591 26.0718 15.5303 25.4847 15.2727C24.9014 15.0152 24.4373 14.6572 24.0926 14.1989C23.7517 13.7367 23.5661 13.2008 23.5358 12.5909H24.9676C24.9979 12.9659 25.1267 13.2898 25.354 13.5625C25.5813 13.8314 25.8786 14.0398 26.246 14.1875C26.6135 14.3352 27.0207 14.4091 27.4676 14.4091C27.9676 14.4091 28.4108 14.322 28.7972 14.1477C29.1835 13.9735 29.4866 13.7311 29.7063 13.4205C29.926 13.1098 30.0358 12.75 30.0358 12.3409C30.0358 11.9129 29.9298 11.536 29.7176 11.2102C29.5055 10.8807 29.1949 10.6231 28.7858 10.4375C28.3767 10.2519 27.8767 10.1591 27.2858 10.1591H26.354V8.90909H27.2858C27.7479 8.90909 28.1532 8.82576 28.5017 8.65909C28.854 8.49242 29.1286 8.25758 29.3256 7.95455C29.5264 7.65152 29.6267 7.29545 29.6267 6.88636C29.6267 6.49242 29.5396 6.14962 29.3654 5.85795C29.1911 5.56629 28.9449 5.33901 28.6267 5.17614C28.3123 5.01326 27.9411 4.93182 27.5131 4.93182C27.1116 4.93182 26.7328 5.00568 26.3767 5.15341C26.0245 5.29735 25.7366 5.50758 25.5131 5.78409C25.2896 6.05682 25.1684 6.38636 25.1495 6.77273H23.7858C23.8085 6.16288 23.9923 5.62879 24.337 5.17045C24.6817 4.70833 25.1324 4.34848 25.6892 4.09091C26.2498 3.83333 26.8654 3.70455 27.5358 3.70455C28.2555 3.70455 28.8729 3.85038 29.3881 4.14205C29.9032 4.42992 30.2991 4.81061 30.5756 5.28409C30.8521 5.75758 30.9904 6.26894 30.9904 6.81818C30.9904 7.47348 30.818 8.0322 30.4733 8.49432C30.1324 8.95644 29.6684 9.27652 29.0813 9.45455V9.54545C29.8161 9.66667 30.39 9.97917 30.8029 10.483C31.2157 10.983 31.4222 11.6023 31.4222 12.3409C31.4222 12.9735 31.2498 13.5417 30.9051 14.0455C30.5642 14.5455 30.0983 14.9394 29.5074 15.2273C28.9165 15.5152 28.2442 15.6591 27.4904 15.6591Z" fill="black" fill-opacity="0.8"/>
<line x1="482.791" y1="10" x2="701.677" y2="9.99998" stroke="black" stroke-opacity="0.2" stroke-width="4" stroke-linecap="round"/>
<line x1="45.3228" y1="10" x2="478.791" y2="10" stroke="black" stroke-opacity="0.8" stroke-width="4" stroke-linecap="round"/>
<circle cx="480.791" cy="10" r="6" fill="black" fill-opacity="0.8"/>
</svg>
