<svg width="56" height="56" viewBox="0 0 56 56" fill="none" xmlns="http://www.w3.org/2000/svg">
<path d="M28.0002 21.6667C29.7418 21.6667 31.1668 20.2417 31.1668 18.5C31.1668 16.7584 29.7418 15.3334 28.0002 15.3334C26.2585 15.3334 24.8335 16.7584 24.8335 18.5C24.8335 20.2417 26.2585 21.6667 28.0002 21.6667ZM28.0002 24.8334C26.2585 24.8334 24.8335 26.2584 24.8335 28C24.8335 29.7417 26.2585 31.1667 28.0002 31.1667C29.7418 31.1667 31.1668 29.7417 31.1668 28C31.1668 26.2584 29.7418 24.8334 28.0002 24.8334ZM28.0002 34.3334C26.2585 34.3334 24.8335 35.7584 24.8335 37.5C24.8335 39.2417 26.2585 40.6667 28.0002 40.6667C29.7418 40.6667 31.1668 39.2417 31.1668 37.5C31.1668 35.7584 29.7418 34.3334 28.0002 34.3334Z" fill="black" fill-opacity="0.8"/>
</svg>
