<svg width="56" height="56" viewBox="0 0 56 56" fill="none" xmlns="http://www.w3.org/2000/svg">
<path d="M28.0002 43.8333C29.7418 43.8333 31.1668 42.4083 31.1668 40.6666H24.8335C24.8335 42.4083 26.2585 43.8333 28.0002 43.8333ZM37.5002 34.3333V26.4166C37.5002 21.5558 34.9193 17.4866 30.3752 16.41V15.3333C30.3752 14.0191 29.3143 12.9583 28.0002 12.9583C26.686 12.9583 25.6252 14.0191 25.6252 15.3333V16.41C21.0968 17.4866 18.5002 21.54 18.5002 26.4166V34.3333L15.3335 37.5V39.0833H40.6668V37.5L37.5002 34.3333ZM34.3335 35.9166H21.6668V26.4166C21.6668 22.49 24.0577 19.2916 28.0002 19.2916C31.9427 19.2916 34.3335 22.49 34.3335 26.4166V35.9166Z" fill="black" fill-opacity="0.8"/>
</svg>
