<svg width="56" height="56" viewBox="0 0 56 56" fill="none" xmlns="http://www.w3.org/2000/svg">
<path d="M33.5417 31.1667H32.2908L31.8475 30.7392C33.3992 28.9342 34.3333 26.5908 34.3333 24.0417C34.3333 18.3575 29.7258 13.75 24.0417 13.75C18.3575 13.75 13.75 18.3575 13.75 24.0417C13.75 29.7258 18.3575 34.3333 24.0417 34.3333C26.5908 34.3333 28.9342 33.3992 30.7392 31.8475L31.1667 32.2908V33.5417L39.0833 41.4425L41.4425 39.0833L33.5417 31.1667ZM24.0417 31.1667C20.0992 31.1667 16.9167 27.9842 16.9167 24.0417C16.9167 20.0992 20.0992 16.9167 24.0417 16.9167C27.9842 16.9167 31.1667 20.0992 31.1667 24.0417C31.1667 27.9842 27.9842 31.1667 24.0417 31.1667Z" fill="black" fill-opacity="0.8"/>
</svg>
