<svg width="56" height="56" viewBox="0 0 56 56" fill="none" xmlns="http://www.w3.org/2000/svg">
<path d="M37.5 34.46C36.2967 34.46 35.22 34.935 34.3967 35.6792L23.1075 29.1083C23.1867 28.7442 23.25 28.38 23.25 28C23.25 27.62 23.1867 27.2558 23.1075 26.8917L34.27 20.3842C35.125 21.1758 36.2492 21.6667 37.5 21.6667C40.1283 21.6667 42.25 19.545 42.25 16.9167C42.25 14.2883 40.1283 12.1667 37.5 12.1667C34.8717 12.1667 32.75 14.2883 32.75 16.9167C32.75 17.2967 32.8133 17.6608 32.8925 18.025L21.73 24.5325C20.875 23.7408 19.7508 23.25 18.5 23.25C15.8717 23.25 13.75 25.3717 13.75 28C13.75 30.6283 15.8717 32.75 18.5 32.75C19.7508 32.75 20.875 32.2592 21.73 31.4675L33.0033 38.0542C32.9242 38.3867 32.8767 38.735 32.8767 39.0833C32.8767 41.6325 34.9508 43.7067 37.5 43.7067C40.0492 43.7067 42.1233 41.6325 42.1233 39.0833C42.1233 36.5342 40.0492 34.46 37.5 34.46ZM37.5 15.3333C38.3708 15.3333 39.0833 16.0458 39.0833 16.9167C39.0833 17.7875 38.3708 18.5 37.5 18.5C36.6292 18.5 35.9167 17.7875 35.9167 16.9167C35.9167 16.0458 36.6292 15.3333 37.5 15.3333ZM18.5 29.5833C17.6292 29.5833 16.9167 28.8708 16.9167 28C16.9167 27.1292 17.6292 26.4167 18.5 26.4167C19.3708 26.4167 20.0833 27.1292 20.0833 28C20.0833 28.8708 19.3708 29.5833 18.5 29.5833ZM37.5 40.6983C36.6292 40.6983 35.9167 39.9858 35.9167 39.115C35.9167 38.2442 36.6292 37.5317 37.5 37.5317C38.3708 37.5317 39.0833 38.2442 39.0833 39.115C39.0833 39.9858 38.3708 40.6983 37.5 40.6983Z" fill="black"/>
</svg>
