<svg width="27" height="26" viewBox="0 0 27 26" fill="none" xmlns="http://www.w3.org/2000/svg">
<rect x="0.344727" width="26" height="26" rx="13" fill="white"/>
<path d="M6.72852 10.7949V15.2056H9.66899L13.3446 18.8812V7.11926L9.66899 10.7949H6.72852ZM11.8743 10.6699V15.3305L10.2791 13.7353H8.19875V12.2651H10.2791L11.8743 10.6699ZM16.6526 13.0002C16.6526 11.6991 15.9028 10.5817 14.8148 10.0377V15.9554C15.9028 15.4188 16.6526 14.3014 16.6526 13.0002ZM14.8148 6.55322V8.06757C16.9393 8.69977 18.4904 10.6699 18.4904 13.0002C18.4904 15.3305 16.9393 17.3007 14.8148 17.9329V19.4472C17.7627 18.7783 19.9607 16.1465 19.9607 13.0002C19.9607 9.85391 17.7627 7.22218 14.8148 6.55322Z" fill="#FF4D00"/>
</svg>
