<svg width="56" height="56" viewBox="0 0 56 56" fill="none" xmlns="http://www.w3.org/2000/svg">
<path d="M29 13.75L29.0158 30.4542C28.0817 29.9158 27.005 29.5833 25.8492 29.5833C22.3342 29.5833 19.5 32.4175 19.5 35.9167C19.5 39.4158 22.3342 42.25 25.8492 42.25C29.3642 42.25 32.1667 39.4158 32.1667 35.9167V20.0833H38.5V13.75H29ZM25.8492 39.0833C24.1075 39.0833 22.6825 37.6583 22.6825 35.9167C22.6825 34.175 24.1075 32.75 25.8492 32.75C27.5908 32.75 29.0158 34.175 29.0158 35.9167C29.0158 37.6583 27.5908 39.0833 25.8492 39.0833Z" fill="black" fill-opacity="0.8"/>
<path fill-rule="evenodd" clip-rule="evenodd" d="M19.8903 28H23.0364L23.0364 24.0731H26.9634V20.9269L23.0364 20.9269L23.0364 17H19.8903L19.8903 20.9269L15.9634 20.9269V24.0731H19.8903L19.8903 28Z" fill="black" fill-opacity="0.8"/>
</svg>
