<svg width="57" height="56" viewBox="0 0 57 56" fill="none" xmlns="http://www.w3.org/2000/svg">
<path d="M13.916 23.25V32.75H20.2493L28.166 40.6666V15.3333L20.2493 23.25H13.916ZM24.9993 22.9808V33.0191L21.5635 29.5833H17.0827V26.4166H21.5635L24.9993 22.9808ZM35.291 28C35.291 25.1975 33.676 22.7908 31.3327 21.6191V34.365C33.676 33.2091 35.291 30.8025 35.291 28ZM31.3327 14.1141V17.3758C35.9085 18.7375 39.2493 22.9808 39.2493 28C39.2493 33.0191 35.9085 37.2625 31.3327 38.6241V41.8858C37.6819 40.445 42.416 34.7766 42.416 28C42.416 21.2233 37.6819 15.555 31.3327 14.1141Z" fill="black" fill-opacity="0.8"/>
</svg>
