<svg width="30" height="28" viewBox="0 0 30 28" fill="none" xmlns="http://www.w3.org/2000/svg">
<path d="M0.916016 9.24997V18.75H7.24935L15.166 26.6666V1.3333L7.24935 9.24997H0.916016ZM11.9993 8.9808V19.0191L8.56352 15.5833H4.08268V12.4166H8.56352L11.9993 8.9808ZM22.291 14C22.291 11.1975 20.676 8.7908 18.3327 7.61913V20.365C20.676 19.2091 22.291 16.8025 22.291 14ZM18.3327 0.114136V3.3758C22.9085 4.73747 26.2493 8.9808 26.2493 14C26.2493 19.0191 22.9085 23.2625 18.3327 24.6241V27.8858C24.6819 26.445 29.416 20.7766 29.416 14C29.416 7.2233 24.6819 1.55497 18.3327 0.114136Z" fill="black" fill-opacity="0.8"/>
</svg>
