<svg width="190" height="30" viewBox="-18 0 70 34" fill="none" xmlns="http://www.w3.org/2000/svg">
<g clip-path="url(#clip0_101_1534)">
<path d="M33.611 4.13611C31.8078 4.13611 30.0341 4.54997 28.3787 5.28901C25.0087 3.78137 21.1362 3.81093 17.8845 5.28901C16.2882 4.57953 14.5441 4.13611 12.6817 4.13611C5.67574 4.13611 0 9.84151 0 16.8181C0 23.7946 5.67574 29.5 12.6817 29.5C14.5441 29.5 16.3177 29.0566 17.914 28.3471C19.5399 29.0862 21.3431 29.5 23.1464 29.5C24.9496 29.5 26.7233 29.1157 28.3787 28.3471C30.0046 29.0862 31.7782 29.5 33.5815 29.5C40.5874 29.5 46.2927 23.8242 46.2927 16.8476C46.2927 9.87107 40.617 4.13611 33.611 4.13611ZM4.43417 16.8181C4.43417 12.2656 8.12931 8.57036 12.6817 8.57036C17.2341 8.57036 20.9293 12.2656 20.9293 16.8181C20.9293 21.3706 17.2341 25.0658 12.6817 25.0658C8.12931 25.0658 4.43417 21.3706 4.43417 16.8181ZM22.3482 24.9475C24.2106 22.7304 25.3635 19.922 25.3635 16.8181C25.3635 13.7141 24.181 10.8762 22.3187 8.65904C24.0036 8.48167 25.7773 8.77729 27.2554 9.63458C29.8272 11.1718 31.3939 13.8619 31.3939 16.8181C31.3939 19.7742 29.8272 22.4643 27.3145 23.9424C25.7773 24.8293 24.0332 25.0953 22.3482 24.9475ZM33.611 25.0658C33.345 25.0658 33.1085 24.9771 32.8424 24.9771C34.7343 22.7304 35.8281 19.8629 35.8281 16.8476C35.8281 13.8323 34.7343 10.9353 32.8424 8.68861C33.1085 8.68861 33.345 8.59992 33.611 8.59992C38.1634 8.59992 41.8881 12.2951 41.8881 16.8772C41.8881 21.4592 38.193 25.0953 33.611 25.0953V25.0658Z" fill="white"/>
</g>
</svg>