<svg width="40" height="23" viewBox="0 0 40 23" fill="none" xmlns="http://www.w3.org/2000/svg">
<path d="M28.975 0.634583C27.4205 0.634583 25.8915 0.991361 24.4644 1.62847C21.5592 0.328772 18.2209 0.354256 15.4177 1.62847C14.0415 1.01685 12.538 0.634583 10.9325 0.634583C4.89288 0.634583 0 5.55303 0 11.5673C0 17.5816 4.89288 22.5 10.9325 22.5C12.538 22.5 14.067 22.1178 15.4431 21.5061C16.8448 22.1432 18.3993 22.5 19.9538 22.5C21.5083 22.5 23.0373 22.1687 24.4644 21.5061C25.866 22.1432 27.395 22.5 28.9495 22.5C34.9892 22.5 39.9075 17.6071 39.9075 11.5928C39.9075 5.57852 35.0147 0.634583 28.975 0.634583ZM3.82256 11.5673C3.82256 7.64274 7.00803 4.45721 10.9325 4.45721C14.857 4.45721 18.0425 7.64274 18.0425 11.5673C18.0425 15.4919 14.857 18.6774 10.9325 18.6774C7.00803 18.6774 3.82256 15.4919 3.82256 11.5673V11.5673ZM19.2657 18.5755C20.8712 16.6641 21.8651 14.2431 21.8651 11.5673C21.8651 8.89146 20.8457 6.44498 19.2402 4.53366C20.6928 4.38076 22.2218 4.6356 23.496 5.37464C25.7131 6.69982 27.0637 9.01888 27.0637 11.5673C27.0637 14.1157 25.7131 16.4348 23.547 17.709C22.2218 18.4735 20.7183 18.7029 19.2657 18.5755V18.5755ZM28.975 18.6774C28.7457 18.6774 28.5418 18.6009 28.3124 18.6009C29.9434 16.6641 30.8863 14.1922 30.8863 11.5928C30.8863 8.9934 29.9434 6.49595 28.3124 4.55915C28.5418 4.55915 28.7457 4.4827 28.975 4.4827C32.8995 4.4827 36.1105 7.66822 36.1105 11.6183C36.1105 15.5683 32.925 18.7029 28.975 18.7029V18.6774Z" fill="#FF4D00"/>
</svg>
