<svg width="26" height="27" viewBox="0 0 26 27" fill="none" xmlns="http://www.w3.org/2000/svg">
<rect y="0.5" width="26" height="26" rx="13" fill="white"/>
<path d="M6.38379 11.2946V15.7053H9.32427L12.9999 19.3809V7.61902L9.32427 11.2946H6.38379ZM11.5296 11.1696V15.8303L9.93441 14.2351H7.85403V12.7649H9.93441L11.5296 11.1696ZM16.3079 13.5C16.3079 12.1988 15.5581 11.0814 14.4701 10.5374V16.4552C15.5581 15.9185 16.3079 14.8011 16.3079 13.5ZM14.4701 7.05298V8.56732C16.5946 9.19953 18.1457 11.1696 18.1457 13.5C18.1457 15.8303 16.5946 17.8004 14.4701 18.4326V19.947C17.4179 19.278 19.6159 16.6463 19.6159 13.5C19.6159 10.3537 17.4179 7.72194 14.4701 7.05298Z" fill="#FF4D00"/>
</svg>
