<svg width="56" height="56" viewBox="0 0 56 56" fill="none" xmlns="http://www.w3.org/2000/svg">
<path d="M42.25 13.75H13.75C12.0083 13.75 10.5833 15.175 10.5833 16.9167V39.0833C10.5833 40.825 12.0083 42.25 13.75 42.25H42.25C43.9916 42.25 45.4166 40.825 45.4166 39.0833V16.9167C45.4166 15.175 43.9916 13.75 42.25 13.75ZM42.25 39.0833H13.75V16.9167H42.25V39.0833ZM21.6666 32.75C21.6666 30.1217 23.7883 28 26.4166 28C26.9708 28 27.5091 28.1108 28 28.285V18.5H35.9166V21.6667H31.1666V32.7975C31.135 35.3942 29.0291 37.5 26.4166 37.5C23.7883 37.5 21.6666 35.3783 21.6666 32.75Z" fill="black"/>
</svg>
