<svg width="49" height="48" viewBox="0 0 49 48" fill="none" xmlns="http://www.w3.org/2000/svg">
<g clip-path="url(#clip0_1763_7086)">
<path d="M28.8561 26.6667H27.8028L27.4295 26.3067C28.7361 24.7867 29.5228 22.8133 29.5228 20.6667C29.5228 15.88 25.6428 12 20.8561 12C16.0695 12 12.1895 15.88 12.1895 20.6667C12.1895 25.4533 16.0695 29.3333 20.8561 29.3333C23.0028 29.3333 24.9761 28.5467 26.4961 27.24L26.8561 27.6133V28.6667L33.5228 35.32L35.5095 33.3333L28.8561 26.6667ZM20.8561 26.6667C17.5361 26.6667 14.8561 23.9867 14.8561 20.6667C14.8561 17.3467 17.5361 14.6667 20.8561 14.6667C24.1761 14.6667 26.8561 17.3467 26.8561 20.6667C26.8561 23.9867 24.1761 26.6667 20.8561 26.6667Z" fill="#FF4D00"/>
</g>
<defs>
<clipPath id="clip0_1763_7086">
<rect width="32" height="32" fill="white" transform="translate(8.18945 8)"/>
</clipPath>
</defs>
</svg>
