<svg width="56" height="56" viewBox="0 0 56 56" fill="none" xmlns="http://www.w3.org/2000/svg">
<path d="M39.7642 29.5517C39.8275 29.045 39.875 28.5384 39.875 28C39.875 27.4617 39.8275 26.955 39.7642 26.4484L43.105 23.8359C43.4058 23.5984 43.485 23.1709 43.295 22.8225L40.1283 17.3442C39.9858 17.0909 39.7167 16.9484 39.4317 16.9484C39.3367 16.9484 39.2417 16.9642 39.1625 16.9959L35.22 18.5792C34.3967 17.9459 33.51 17.4234 32.5442 17.0275L31.9425 12.8317C31.895 12.4517 31.5625 12.1667 31.1667 12.1667H24.8333C24.4375 12.1667 24.105 12.4517 24.0575 12.8317L23.4558 17.0275C22.49 17.4234 21.6033 17.9617 20.78 18.5792L16.8375 16.9959C16.7425 16.9642 16.6475 16.9484 16.5525 16.9484C16.2833 16.9484 16.0142 17.0909 15.8717 17.3442L12.705 22.8225C12.4992 23.1709 12.5942 23.5984 12.895 23.8359L16.2358 26.4484C16.1725 26.955 16.125 27.4775 16.125 28C16.125 28.5225 16.1725 29.045 16.2358 29.5517L12.895 32.1642C12.5942 32.4017 12.515 32.8292 12.705 33.1775L15.8717 38.6559C16.0142 38.9092 16.2833 39.0517 16.5683 39.0517C16.6633 39.0517 16.7583 39.0359 16.8375 39.0042L20.78 37.4209C21.6033 38.0542 22.49 38.5767 23.4558 38.9725L24.0575 43.1684C24.105 43.5484 24.4375 43.8334 24.8333 43.8334H31.1667C31.5625 43.8334 31.895 43.5484 31.9425 43.1684L32.5442 38.9725C33.51 38.5767 34.3967 38.0384 35.22 37.4209L39.1625 39.0042C39.2575 39.0359 39.3525 39.0517 39.4475 39.0517C39.7167 39.0517 39.9858 38.9092 40.1283 38.6559L43.295 33.1775C43.485 32.8292 43.4058 32.4017 43.105 32.1642L39.7642 29.5517V29.5517ZM36.6292 26.8442C36.6925 27.335 36.7083 27.6675 36.7083 28C36.7083 28.3325 36.6767 28.6809 36.6292 29.1559L36.4075 30.945L37.8167 32.0534L39.5267 33.3834L38.4183 35.2992L36.4075 34.4917L34.7608 33.8267L33.3358 34.9034C32.655 35.41 32.0058 35.79 31.3567 36.0592L29.6783 36.74L29.425 38.5292L29.1083 40.6667H26.8917L26.5908 38.5292L26.3375 36.74L24.6592 36.0592C23.9783 35.7742 23.345 35.41 22.7117 34.935L21.2708 33.8267L19.5925 34.5075L17.5817 35.315L16.4733 33.3992L18.1833 32.0692L19.5925 30.9609L19.3708 29.1717C19.3233 28.6809 19.2917 28.3167 19.2917 28C19.2917 27.6834 19.3233 27.3192 19.3708 26.8442L19.5925 25.055L18.1833 23.9467L16.4733 22.6167L17.5817 20.7009L19.5925 21.5084L21.2392 22.1734L22.6642 21.0967C23.345 20.59 23.9942 20.21 24.6433 19.9409L26.3217 19.26L26.575 17.4709L26.8917 15.3334H29.0925L29.3933 17.4709L29.6467 19.26L31.325 19.9409C32.0058 20.2259 32.6392 20.59 33.2725 21.065L34.7133 22.1734L36.3917 21.4925L38.4025 20.685L39.5108 22.6009L37.8167 23.9467L36.4075 25.055L36.6292 26.8442ZM28 21.6667C24.5008 21.6667 21.6667 24.5009 21.6667 28C21.6667 31.4992 24.5008 34.3334 28 34.3334C31.4992 34.3334 34.3333 31.4992 34.3333 28C34.3333 24.5009 31.4992 21.6667 28 21.6667ZM28 31.1667C26.2583 31.1667 24.8333 29.7417 24.8333 28C24.8333 26.2584 26.2583 24.8334 28 24.8334C29.7417 24.8334 31.1667 26.2584 31.1667 28C31.1667 29.7417 29.7417 31.1667 28 31.1667Z" fill="black" fill-opacity="0.8"/>
</svg>
